<svg width="166" height="142" viewBox="0 0 166 142" fill="none" xmlns="http://www.w3.org/2000/svg">
<path opacity="0.2" d="M160.468 71.0001L127.268 100.583H38.7324L5.53178 71.0001L38.7324 41.4168H127.268L160.468 71.0001Z" fill="#0F9BDB" fill-opacity="0.37"/>
<path d="M42.2739 45.9652L14.1778 71.0001L42.2739 96.035C42.8483 96.5266 43.3252 97.1359 43.6767 97.827C44.0283 98.5181 44.2474 99.2773 44.3213 100.06C44.3951 100.843 44.3222 101.633 44.1068 102.386C43.8915 103.138 43.5379 103.837 43.0669 104.441C42.5959 105.046 42.0169 105.544 41.3638 105.906C40.7107 106.268 39.9965 106.488 39.2631 106.551C38.5298 106.615 37.7919 106.521 37.0927 106.276C36.3935 106.031 35.747 105.64 35.191 105.124L1.99038 75.5411C1.3674 74.9859 0.866192 74.2909 0.522239 73.5056C0.178287 72.7202 0 71.8636 0 70.9964C0 70.1292 0.178287 69.2726 0.522239 68.4872C0.866192 67.7019 1.3674 67.0069 1.99038 66.4517L35.191 36.8684C36.3192 35.8641 37.7743 35.3801 39.2362 35.523C40.6981 35.6659 42.047 36.4238 42.9863 37.6301C43.9255 38.8365 44.3781 40.3923 44.2445 41.9555C44.1109 43.5186 43.402 44.961 42.2739 45.9652ZM164.01 66.4517L130.809 36.8684C130.25 36.3711 129.606 35.9963 128.912 35.7655C128.217 35.5347 127.488 35.4523 126.764 35.523C126.04 35.5937 125.336 35.8162 124.693 36.1778C124.049 36.5393 123.479 37.0328 123.014 37.6301C122.074 38.8365 121.622 40.3923 121.755 41.9555C121.889 43.5186 122.598 44.961 123.726 45.9652L151.822 71.0001L123.726 96.035C123.152 96.5266 122.675 97.1359 122.323 97.827C121.972 98.5181 121.753 99.2773 121.679 100.06C121.605 100.843 121.678 101.633 121.893 102.386C122.109 103.138 122.462 103.837 122.933 104.441C123.404 105.046 123.983 105.544 124.636 105.906C125.289 106.268 126.003 106.488 126.737 106.551C127.47 106.615 128.208 106.521 128.907 106.276C129.607 106.031 130.253 105.64 130.809 105.124L164.01 75.5411C164.633 74.9859 165.134 74.2909 165.478 73.5056C165.822 72.7202 166 71.8636 166 70.9964C166 70.1292 165.822 69.2726 165.478 68.4872C165.134 67.7019 164.633 67.0069 164.01 66.4517ZM107.022 0.355195C106.339 0.0900277 105.614 -0.028682 104.888 0.00584415C104.162 0.0403703 103.449 0.227457 102.791 0.55642C102.133 0.885383 101.541 1.34978 101.051 1.92309C100.56 2.49641 100.18 3.16742 99.9323 3.8978L55.6648 134.064C55.4157 134.795 55.3039 135.571 55.3357 136.348C55.3674 137.125 55.5422 137.888 55.8499 138.593C56.1576 139.298 56.5923 139.931 57.129 140.456C57.6658 140.981 58.2941 141.387 58.9779 141.652C59.5842 141.883 60.2228 142 60.8662 142C62.0026 142 63.1114 141.626 64.042 140.929C64.9726 140.231 65.6799 139.245 66.0677 138.102L110.335 7.93591C110.583 7.20555 110.694 6.43011 110.662 5.65386C110.63 4.87762 110.455 4.11577 110.147 3.41183C109.839 2.70789 109.405 2.07564 108.869 1.55118C108.333 1.02672 107.705 0.620325 107.022 0.355195Z" fill="#0F9BDB" fill-opacity="0.22"/>
<path d="M76.3874 58.8867C75.5745 57.1219 74.449 55.5463 73.011 54.1598C71.5104 52.8363 69.7284 51.7965 67.6652 51.0402C65.4143 50.3469 63.0385 50.0003 60.5375 50.0003H43V57.0905H59.882C62.6957 57.0905 65.0403 57.7837 66.916 59.1703C68.6667 60.4939 69.542 62.5106 69.542 65.2207C69.542 67.6786 68.6979 69.6639 67.0098 71.1764C65.1966 72.626 62.8208 73.3508 59.8822 73.3508H43.0001V95H50.7844V80.5361H59.6003C61.9137 80.5361 64.2583 80.1895 66.6342 79.4962C68.8226 78.803 70.6983 77.8261 72.2614 76.5657C73.8869 75.3053 75.1688 73.6981 76.1066 71.7444C77.0444 69.8536 77.5134 67.6478 77.5134 65.1268C77.5134 62.7319 77.1377 60.6514 76.3874 58.8867ZM114.183 50C110.744 50 107.555 50.567 104.616 51.7015C101.74 52.8359 99.2393 54.4115 97.1134 56.4283C95.05 58.319 93.4245 60.7139 92.2365 63.6131C91.2361 66.0711 90.6734 68.7495 90.5483 71.6486V74.4847H98.8015V71.6486C98.9265 69.5057 99.2704 67.7726 99.8331 66.4491C100.583 64.6214 101.615 62.9829 102.928 61.5333C104.491 60.0838 106.117 59.0124 107.805 58.3192C109.743 57.5629 111.869 57.1847 114.182 57.1847H125.999V50H114.183ZM117.747 71.2704L117.747 73.0665H117.841C117.716 75.0832 117.34 76.9425 116.715 78.6442C115.902 80.598 114.871 82.205 113.62 83.4656C112.245 84.8522 110.619 85.9236 108.743 86.6798C106.805 87.4361 104.679 87.8143 102.366 87.8143H90.5488V94.999H102.366C105.805 94.999 108.993 94.4318 111.932 93.2973C114.808 92.1629 117.309 90.5872 119.435 88.5704C121.623 86.3646 123.249 83.9698 124.312 81.3858C125.437 78.8648 126 76.0918 126 73.0667V71.2704H117.747Z" fill="#0EA5E9" fill-opacity="0.913725"/>
</svg>
